<svg xmlns="http://www.w3.org/2000/svg" width="1600" height="900" viewBox="0 0 1600 900">
  <defs>
    <linearGradient id="bg" x1="0" y1="0" x2="1" y2="1"><stop stop-color="#091d35"/><stop offset="1" stop-color="#0c4d59"/></linearGradient>
    <linearGradient id="pulse" x1="0" y1="0" x2="1" y2="0"><stop stop-color="#3d92ff"/><stop offset="1" stop-color="#35dfc5"/></linearGradient>
    <filter id="shadow" x="-20%" y="-20%" width="140%" height="150%"><feDropShadow dx="0" dy="10" stdDeviation="14" flood-color="#020b15" flood-opacity=".38"/></filter>
    <marker id="arrow" markerWidth="12" markerHeight="12" refX="10" refY="6" orient="auto"><path d="M0 0l12 6-12 6z" fill="#51ded1"/></marker>
  </defs>
  <rect width="1600" height="900" fill="url(#bg)"/>
  <text x="800" y="78" text-anchor="middle" font-family="Segoe UI, Microsoft JhengHei, sans-serif" font-size="49" font-weight="800" fill="#fff">從連線檢查到報表與雲端備份</text>
  <text x="800" y="122" text-anchor="middle" font-family="Segoe UI, Microsoft JhengHei, sans-serif" font-size="24" fill="#bcd7e3">NetCheckMonitor 將長時間監控資料轉換成可閱讀、可交付、可保存的紀錄</text>

  <g transform="translate(75 190)" filter="url(#shadow)">
    <rect width="310" height="220" rx="24" fill="#fff"/>
    <circle cx="58" cy="58" r="32" fill="#e5f1ff"/><path d="M41 59h11l9-18 13 38 10-20h13" fill="none" stroke="#1974cf" stroke-width="5" stroke-linecap="round" stroke-linejoin="round"/>
    <text x="108" y="57" font-family="Segoe UI, Microsoft JhengHei, sans-serif" font-size="27" font-weight="800" fill="#17364b">1. 定時檢查</text>
    <text x="36" y="119" font-family="Segoe UI, Microsoft JhengHei, sans-serif" font-size="21" fill="#456174">每 60 秒測試對外連線，</text>
    <text x="36" y="153" font-family="Segoe UI, Microsoft JhengHei, sans-serif" font-size="21" fill="#456174">記錄正常、斷線與延遲。</text>
    <rect x="36" y="177" width="174" height="28" rx="14" fill="#e5f1ff"/><text x="123" y="198" text-anchor="middle" font-family="Segoe UI, Microsoft JhengHei, sans-serif" font-size="16" font-weight="700" fill="#1974cf">避免監控期間休眠</text>
  </g>
  <path d="M402 300h82" stroke="#51ded1" stroke-width="6" marker-end="url(#arrow)"/>

  <g transform="translate(505 190)" filter="url(#shadow)">
    <rect width="310" height="220" rx="24" fill="#fff"/>
    <circle cx="58" cy="58" r="32" fill="#e7faf6"/><path d="M44 42h28l13 13v42H44z" fill="none" stroke="#099a88" stroke-width="5"/><path d="M72 42v15h13M52 72h24M52 84h24" fill="none" stroke="#099a88" stroke-width="4"/>
    <text x="108" y="57" font-family="Segoe UI, Microsoft JhengHei, sans-serif" font-size="27" font-weight="800" fill="#17364b">2. 安全保存</text>
    <text x="36" y="119" font-family="Segoe UI, Microsoft JhengHei, sans-serif" font-size="21" fill="#456174">每次結果即時寫入 CSV，</text>
    <text x="36" y="153" font-family="Segoe UI, Microsoft JhengHei, sans-serif" font-size="21" fill="#456174">降低誤關或當機的損失。</text>
    <rect x="36" y="177" width="174" height="28" rx="14" fill="#e7faf6"/><text x="123" y="198" text-anchor="middle" font-family="Segoe UI, Microsoft JhengHei, sans-serif" font-size="16" font-weight="700" fill="#098979">暫停時段不納入統計</text>
  </g>
  <path d="M832 300h82" stroke="#51ded1" stroke-width="6" marker-end="url(#arrow)"/>

  <g transform="translate(935 190)" filter="url(#shadow)">
    <rect width="310" height="220" rx="24" fill="#fff"/>
    <circle cx="58" cy="58" r="32" fill="#f2edff"/><path d="M40 88V43h42v45z" fill="none" stroke="#7653c4" stroke-width="5"/><path d="M48 76l9-11 8 7 11-17" fill="none" stroke="#7653c4" stroke-width="4" stroke-linecap="round" stroke-linejoin="round"/>
    <text x="108" y="57" font-family="Segoe UI, Microsoft JhengHei, sans-serif" font-size="27" font-weight="800" fill="#17364b">3. 圖文報表</text>
    <text x="36" y="119" font-family="Segoe UI, Microsoft JhengHei, sans-serif" font-size="21" fill="#456174">時間軸、斷線事件與每日</text>
    <text x="36" y="153" font-family="Segoe UI, Microsoft JhengHei, sans-serif" font-size="21" fill="#456174">斷線時間／百分比統計。</text>
    <rect x="36" y="177" width="174" height="28" rx="14" fill="#f2edff"/><text x="123" y="198" text-anchor="middle" font-family="Segoe UI, Microsoft JhengHei, sans-serif" font-size="16" font-weight="700" fill="#6847b2">即時或結束後產生</text>
  </g>
  <path d="M1262 300h82" stroke="#51ded1" stroke-width="6" marker-end="url(#arrow)"/>

  <g transform="translate(1365 190)" filter="url(#shadow)">
    <rect width="175" height="220" rx="24" fill="#fff"/>
    <circle cx="87" cy="58" r="32" fill="#e6f1ff"/><path d="M63 68c0-8 6-14 14-14 2-10 11-16 20-14 10 2 15 10 14 19 7 2 11 7 11 14 0 8-7 15-15 15H74c-7 0-11-5-11-11z" fill="none" stroke="#3779ca" stroke-width="5"/>
    <text x="87" y="120" text-anchor="middle" font-family="Segoe UI, Microsoft JhengHei, sans-serif" font-size="25" font-weight="800" fill="#17364b">4. 保存分享</text>
    <text x="87" y="155" text-anchor="middle" font-family="Segoe UI, Microsoft JhengHei, sans-serif" font-size="19" fill="#456174">PDF 下載</text>
    <text x="87" y="184" text-anchor="middle" font-family="Segoe UI, Microsoft JhengHei, sans-serif" font-size="19" fill="#456174">Drive 備份</text>
  </g>

  <g transform="translate(75 488)" filter="url(#shadow)">
    <rect width="1465" height="315" rx="26" fill="#f8fcfe"/>
    <text x="38" y="54" font-family="Segoe UI, Microsoft JhengHei, sans-serif" font-size="28" font-weight="800" fill="#17364b">報表重點示意</text>
    <text x="1425" y="52" text-anchor="end" font-family="Segoe UI, Microsoft JhengHei, sans-serif" font-size="18" fill="#78909d">測試電腦：DESKTOP-HOME　｜　2026-07-15</text>
    <rect x="38" y="83" width="1388" height="86" rx="16" fill="#eaf1f5"/>
    <rect x="58" y="108" width="410" height="36" rx="10" fill="#42c98d"/>
    <rect x="468" y="108" width="78" height="36" fill="#f25464"/>
    <rect x="546" y="108" width="235" height="36" fill="#42c98d"/>
    <rect x="781" y="108" width="112" height="36" fill="#f3b34a"/>
    <rect x="893" y="108" width="513" height="36" rx="10" fill="#42c98d"/>
    <text x="62" y="103" font-family="Segoe UI, Microsoft JhengHei, sans-serif" font-size="16" fill="#496477">00:00</text>
    <text x="460" y="103" font-family="Segoe UI, Microsoft JhengHei, sans-serif" font-size="16" fill="#496477">08:14</text>
    <text x="773" y="103" font-family="Segoe UI, Microsoft JhengHei, sans-serif" font-size="16" fill="#496477">13:20</text>
    <text x="1370" y="103" font-family="Segoe UI, Microsoft JhengHei, sans-serif" font-size="16" fill="#496477">24:00</text>
    <circle cx="61" cy="205" r="8" fill="#42c98d"/><text x="79" y="212" font-family="Segoe UI, Microsoft JhengHei, sans-serif" font-size="20" fill="#365467">正常</text>
    <circle cx="160" cy="205" r="8" fill="#f25464"/><text x="178" y="212" font-family="Segoe UI, Microsoft JhengHei, sans-serif" font-size="20" fill="#365467">斷線</text>
    <circle cx="259" cy="205" r="8" fill="#f3b34a"/><text x="277" y="212" font-family="Segoe UI, Microsoft JhengHei, sans-serif" font-size="20" fill="#365467">暫停（不納入統計）</text>
    <g transform="translate(760 188)">
      <rect width="200" height="82" rx="14" fill="#e9f8f2"/><text x="100" y="30" text-anchor="middle" font-family="Segoe UI, Microsoft JhengHei, sans-serif" font-size="17" fill="#507067">有效監控時間</text><text x="100" y="62" text-anchor="middle" font-family="Segoe UI, Microsoft JhengHei, sans-serif" font-size="26" font-weight="800" fill="#168462">23 小時 12 分</text>
      <rect x="220" width="200" height="82" rx="14" fill="#ffecee"/><text x="320" y="30" text-anchor="middle" font-family="Segoe UI, Microsoft JhengHei, sans-serif" font-size="17" fill="#76565b">每日斷線時間</text><text x="320" y="62" text-anchor="middle" font-family="Segoe UI, Microsoft JhengHei, sans-serif" font-size="26" font-weight="800" fill="#cb4054">12 分鐘</text>
      <rect x="440" width="200" height="82" rx="14" fill="#edf3ff"/><text x="540" y="30" text-anchor="middle" font-family="Segoe UI, Microsoft JhengHei, sans-serif" font-size="17" fill="#52647e">每日斷線百分比</text><text x="540" y="62" text-anchor="middle" font-family="Segoe UI, Microsoft JhengHei, sans-serif" font-size="26" font-weight="800" fill="#356fc1">0.86%</text>
    </g>
  </g>
  <text x="800" y="864" text-anchor="middle" font-family="Segoe UI, Microsoft JhengHei, sans-serif" font-size="22" fill="#b8d5df">※ 圖中數值為版面示意；實際報表依監控紀錄自動計算</text>
</svg>
